<?xml version="1.0" encoding="utf-8"?>
<!DOCTYPE svg PUBLIC "-//W3C//DTD SVG 1.1//EN" "http://www.w3.org/Graphics/SVG/1.1/DTD/svg11.dtd">
<svg version="1.1" xmlns="http://www.w3.org/2000/svg" xmlns:xlink="http://www.w3.org/1999/xlink" x="0px" y="0px" viewBox="0 0 1000 1000" enable-background="new 0 0 1000 1000" xml:space="preserve">
<g><g><g><path d="M92.2,990h815.6c20.9,0,37.9-17.1,37.9-37.9V610.6c0-20.9-17.1-37.9-37.9-37.9s-37.9,17.1-37.9,37.9v303.5H130.1V610.6c0-20.9-17.1-37.9-37.9-37.9c-20.9,0-37.9,17.1-37.9,37.9v341.4C54.3,972.9,71.3,990,92.2,990z"/><path d="M503.2,10c-20.9,0-37.9,17.1-37.9,37.9v577.9L224.3,402c-15.2-14.5-39.2-13.3-53.7,1.9c-14.5,15.2-13.3,39.2,1.9,53.7L476,739c3.8,3.8,8.9,6.3,13.9,8.2c4.4,1.3,8.9,2.5,13.3,2.5c13.3,0,24.7-7,31.6-17.1l299.1-275c15.2-13.9,16.4-37.9,2.5-53.7c-13.9-15.2-37.9-16.4-53.7-2.5L541.1,623.9v-576C541.1,27.1,524,10,503.2,10z"/></g></g><g></g><g></g><g></g><g></g><g></g><g></g><g></g><g></g><g></g><g></g><g></g><g></g><g></g><g></g><g></g></g>
</svg>