<?xml version="1.0" encoding="utf-8"?>
<!-- Generator: Adobe Illustrator 19.0.1, SVG Export Plug-In . SVG Version: 6.00 Build 0)  -->
<!DOCTYPE svg PUBLIC "-//W3C//DTD SVG 1.1//EN" "http://www.w3.org/Graphics/SVG/1.1/DTD/svg11.dtd">
<svg version="1.1" id="Ebene_1" xmlns="http://www.w3.org/2000/svg" xmlns:xlink="http://www.w3.org/1999/xlink" x="0px" y="0px"
	 viewBox="0 0 225.5 90" style="enable-background:new 0 0 225.5 90;" xml:space="preserve">
<style type="text/css">
	.st0{fill:#AFAFAF;}
</style>
<g id="XMLID_1305_">
	<path id="XMLID_1461_" class="st0" d="M149.1,66c-15.6,0-17.7-8.1-17.7-18.5c0-10.5,2-18.5,17.7-18.5c15.6,0,17.7,8,17.7,18.5
		C166.8,57.9,164.7,66,149.1,66z M149.1,37.2c-4.6,0-4.8,2.8-4.8,10.3c0,7.5,0.2,10.3,4.8,10.3c4.6,0,4.9-2.7,4.9-10.3
		C154,39.9,153.8,37.2,149.1,37.2z"/>
	<path id="XMLID_1455_" class="st0" d="M26.1,38.1c0,0-0.8,0.1-1.4,0.1c-3.7,0-7,0.5-7,0.5v25.5c0,0.2,0,1,0,1H5c0,0,0-0.7,0-1V34.2
		c0-2.4,2.3-3.1,6.6-3.9c3.3-0.7,7.7-1.1,11.9-1.1h1.2c0.5,0,1.4,0,1.4,0s0,1,0,1.5v5.8C26.1,37,26.1,38.1,26.1,38.1z"/>
	<path id="XMLID_1345_" class="st0" d="M105.5,47.5c0-10.5-2.1-18.5-17.7-18.5c-15.6,0-17.6,8-17.6,18.5c0,10.4,2,18.5,17.6,18.5
		c1.9,0,3.6-0.1,5.1-0.3c0,2.3-1,3.9-3.2,4.7c-1.4,0.5-3.4,0.8-6,0.8c-4,0-7.8-1.3-8.9-1.5l-1-0.3l-1.7,7c0,0,0.6,0.4,1.1,0.5
		c1.9,0.8,6.5,2.3,12.8,2.3c11.5,0,17.8-3.3,19.2-13.6c0,0,0.2-9.9,0.4-15.6C105.5,49.2,105.5,48.3,105.5,47.5z M87.8,57.8
		c-4.6,0-4.8-2.7-4.8-10.3c0-7.6,0.2-10.3,4.8-10.3c4.6,0,4.9,2.8,4.9,10.3C92.7,55,92.4,57.8,87.8,57.8z"/>
	<path id="XMLID_1343_" class="st0" d="M63.9,54c-0.2,0.1-0.3,0.2-0.3,0.2s-8.2,4-12.2,4c-2.6,0-4.5-0.4-5.9-1
		c-2.3-0.8-3.2-2.4-3.2-4.8c0,0,0-10.3,0.2-11.6c0.3-2.4,1.5-3.7,5.1-3.7c2.4,0,4,1,4.5,4.1c0.1,0.5,0.1,0.8,0.2,1.3L49,44.2
		c-2.5,1.5-2.8,1.8-2.8,4.6l0,0l0,5.4l18.2-9.8c-0.1-3-0.4-4.4-1-6.6l0,0c0-0.1-0.1-0.2-0.1-0.3c0-0.1,0-0.1-0.1-0.2
		c-0.6-1.8-1.5-3.3-2.7-4.5c-2.6-2.7-6.9-4-13.3-4c-12.9,0-17.5,4.8-17.5,18.8c0,13.9,6.4,18.2,19.5,18.2c5.6,0,12.1-2.9,14.7-4.2
		L63.9,54z"/>
	<polygon id="XMLID_1342_" class="st0" points="112.3,36 112.3,65 125,65 125,28.7 	"/>
	<path id="XMLID_1341_" class="st0" d="M115.4,16.5c-1.7,0-3.1,1.4-3.2,3.1v11.8l12.6-7.2v-7.8L115.4,16.5z"/>
	<path id="XMLID_1340_" class="st0" d="M222.5,17.6c0-0.5-0.4-0.9-0.9-1l0,0h0c0,0,0,0,0,0h0c-0.3,0-0.7,0-1.1,0l-6.3,0
		c-0.8,0-1.6,0.6-1.7,1.4l-4.9,21.7l-5-21.5c-0.2-0.9-1.2-1.7-2.2-1.7l-8.7,0h-23.8c-0.8,0-1.4,0.6-1.4,1.4v3.8
		c0,0.8,0.6,1.4,1.4,1.4h6.4c0.8,0,1.4,0.6,1.4,1.4v20.2c0,0.8,0.6,1.4,1.4,1.4h6.8c0.8,0,1.4-0.6,1.4-1.4V24.7
		c0-0.8,0.6-1.4,1.4-1.4h7.1l6.4,21.3c0.3,0.9,1.3,1.7,2.3,1.7h2.8v0c0,0,0.4,0,0.8,0c0.1,0,0.2,0,0.3,0l0.7,0v0c0.4,0,0.8,0,1.2,0
		l4.5,0c0.8,0,1.6-0.6,1.8-1.4l7.4-25.9c0.1-0.4,0.2-0.8,0.3-1.1l0,0C222.5,17.7,222.5,17.6,222.5,17.6z"/>
</g>
</svg>
