<?xml version="1.0" encoding="utf-8"?>
<!-- Generator: Adobe Illustrator 22.0.1, SVG Export Plug-In . SVG Version: 6.00 Build 0)  -->
<svg version="1.1" id="Ebene_1" xmlns="http://www.w3.org/2000/svg" xmlns:xlink="http://www.w3.org/1999/xlink" x="0px" y="0px"
	 viewBox="0 0 513 90" style="enable-background:new 0 0 513 90;" xml:space="preserve">
<style type="text/css">
	.st0{clip-path:url(#SVGID_2_);}
	.st1{fill:#AFAFAF;}
</style>
<g>
	<defs>
		<rect id="SVGID_1_" x="9" y="15" width="427.4" height="52.2"/>
	</defs>
	<clipPath id="SVGID_2_">
		<use xlink:href="#SVGID_1_"  style="overflow:visible;"/>
	</clipPath>
	<g class="st0">
		<g>
			<path class="st1" d="M36.1,40.6H21.6l2.8,4c3.3,4.7,5.2,7.8,5.2,11.5c0,6.5-3.3,10.6-12.5,10.6c-2.2,0-5.9-0.2-9.1-0.7l0.9-8.6
				h8.4l-3.7-5.1c-2.1-2.9-4.2-6.3-4.2-10c0-4.5,2-11,12.7-11h14V40.6z"/>
			<path class="st1" d="M35.9,32l2.5-8.9h10.5L48.1,32h6l-0.7,8.6h-5.6L47.1,49l-0.7,8.4h5.1l-0.8,7.7c-2.1,0.9-6.3,1.6-9.6,1.6
				c-3.5,0-7.8-0.2-7.8-5.1L34.1,51L35,40.6h-2.7l0.8-8.6H35.9z"/>
			<path class="st1" d="M69.6,62.4c-1.4,1.8-4.2,4.3-8.3,4.3c-7.1,0-8-7.9-8-11.8c0-6,1.6-14.3,6.5-18.9c3.1-2.9,6.8-4.7,14.3-4.7
				c3.1,0,8.1,0.7,10.2,1.3l-2.1,24.8h3.3l-0.7,7.7c-2.1,0.9-5.7,1.6-8.7,1.6c-2.9,0-6.5-0.7-6.5-3.9V62.4z M66,57.4h3.5l1.3-16.8
				h-3.5L66,57.4z"/>
			<path class="st1" d="M110.4,40.6h-7.9L100.6,66H87.3L90,32h11.9l-0.3,3.1c3.5-3.5,6.9-3.1,9.8-3.1L110.4,40.6z"/>
			<path class="st1" d="M116.2,32l2.5-8.9h10.5l-0.8,8.9h6l-0.7,8.6h-5.6l-0.7,8.4l-0.7,8.4h5.1l-0.8,7.7c-2.1,0.9-6.3,1.6-9.6,1.6
				c-3.5,0-7.8-0.2-7.8-5.1l0.9-10.5l0.9-10.5h-2.7l0.8-8.6H116.2z"/>
			<path class="st1" d="M148.8,33.7c2.3-1.5,4.9-2.5,7.6-2.5c7.1,0,8.1,8.1,8.1,11.5c0,7.1-1.5,15.9-5.6,20.1
				c-2.7,2.9-6.7,4.4-11.6,4.4c-5.7,0-7.9-0.3-13.3-1.1l3.8-51.1h13.1L148.8,33.7z M151.8,40.6h-3.5L147,57.4h3.5L151.8,40.6z"/>
			<path class="st1" d="M181.6,62.4c-1.4,1.8-4.2,4.3-8.3,4.3c-7.1,0-8-7.9-8-11.8c0-6,1.6-14.3,6.5-18.9c3.1-2.9,6.8-4.7,14.3-4.7
				c3.1,0,8.1,0.7,10.2,1.3l-2.1,24.8h3.3l-0.7,7.7c-2.1,0.9-5.7,1.6-8.7,1.6c-2.9,0-6.5-0.7-6.5-3.9V62.4z M178,57.4h3.5l1.3-16.8
				h-3.5L178,57.4z"/>
			<path class="st1" d="M214.9,34.9c2.6-1.9,6-3.5,9.5-3.5c2.9,0,6.5,1,6.5,6.3l-1.9,19.7h3.2l-0.7,7.7c-2.2,0.9-5.8,1.6-8.8,1.6
				c-2.5,0-6.8-0.2-6.8-5.1l1.7-21h-3.2l-2,25.4h-13.1l4.1-51h13L214.9,34.9z"/>
			<path class="st1" d="M249.6,34.9c2.6-1.9,6-3.5,9.5-3.5c2.9,0,6.5,1,6.5,6.3l-1.9,19.7h2l-0.7,7.7c-2.9,1.1-4.6,1.6-7.6,1.6
				c-2.5,0-6.8-0.2-6.8-5.1l1.7-21h-3.2l-2,25.4h-13.1l2.7-34h12.9L249.6,34.9z"/>
			<path class="st1" d="M293.8,40.6h-13.2l2.8,4c3.3,4.7,5.2,7.8,5.2,11.5c0,6.5-3.3,10.6-12.5,10.6c-2.2,0-4.7-0.2-8.5-1.6l0.6-7.7
				h8.1l-3.7-5.1c-2.1-2.9-4.2-6.3-4.2-10c0-4.5,2.8-10.3,12.6-10.3h13.4L293.8,40.6z"/>
			<path class="st1" d="M308.3,62.4c-2.8,2.7-6.5,4.3-10.1,4.3c-2.9,0-6.6-0.9-6.6-6.4L294,32h13.1L305,57.4h3.2l2-25.4h12.9
				L321,57.4h7.7l5.6,9.3c-7.7,0-16.5,0-19.5,0c-2.9,0-6.5-0.7-6.5-3.9V62.4z M308.3,20.7l-0.7,8.1h-8.7l0.7-8.1H308.3z M319.9,20.7
				l-0.7,8.1h-8.7l0.7-8.1H319.9z"/>
			<path class="st1" d="M341,62.4c-1.4,1.8-4.2,4.3-8.3,4.3c-7.1,0-8-7.9-8-11.8c0-6,1.5-14.4,6.5-18.9c3.1-2.9,7.3-4.3,11.7-4.3
				l1.2-16.7H357l-3.4,42.4h3.3l-0.7,7.7c-2.1,0.9-5.7,1.6-8.7,1.6c-2.9,0-6.5-0.7-6.5-3.9V62.4z M337.4,57.4h3.5l1.3-16.8h-3.5
				L337.4,57.4z"/>
			<path class="st1" d="M371.4,53.6l-1,12.3h-11.9l0.7-8.6L371.4,53.6z"/>
			<path class="st1" d="M389.7,62.4c-1.4,1.8-4.2,4.3-8.3,4.3c-7.1,0-8-7.9-8-11.8c0-6,1.5-14.4,6.5-18.9c3.1-2.9,7.3-4.3,11.7-4.3
				l1.2-16.7h12.9l-3.4,42.4h3.3l-0.7,7.7c-2.1,0.9-5.7,1.6-8.7,1.6c-2.9,0-6.5-0.7-6.5-3.9V62.4z M386.1,57.4h3.5l1.3-16.8h-3.5
				L386.1,57.4z"/>
			<path class="st1" d="M432,65.1c-2.1,0.9-6.6,2.1-11.2,2.1c-11.6,0-13.5-8.1-13.5-14c0-5.9,1.7-12.5,5.2-16.8
				c2.9-3.6,7.3-5.8,12.1-5.8c7.9,0,10.8,4.1,10.8,9.9c0,5.5-2.1,8.5-4.5,10.2c-2.8,1.9-6.2,2.5-10.3,2.5l-0.3,4.1h12.5L432,65.1z
				 M420.8,47.3h4.1l0.5-6.7h-4.1L420.8,47.3z"/>
		</g>
	</g>
</g>
</svg>
