<?xml version="1.0" encoding="utf-8"?>
<!-- Generator: Adobe Illustrator 19.0.1, SVG Export Plug-In . SVG Version: 6.00 Build 0)  -->
<!DOCTYPE svg PUBLIC "-//W3C//DTD SVG 1.1//EN" "http://www.w3.org/Graphics/SVG/1.1/DTD/svg11.dtd">
<svg version="1.1" id="Ebene_1" xmlns="http://www.w3.org/2000/svg" xmlns:xlink="http://www.w3.org/1999/xlink" x="0px" y="0px"
	 viewBox="0 0 311.5 90" style="enable-background:new 0 0 311.5 90;" xml:space="preserve">
<style type="text/css">
	.st0{fill:#AFAFAF;}
</style>
<path id="XMLID_1472_" class="st0" d="M49.5,30.5h1.4v0h5.6v-6.6c0-1.2-1.1-2.4-2.3-2.4h-3.6v0h-3.4v6.6
	C47.3,29.4,48.3,30.5,49.5,30.5z M75.3,57.5V34.8l-11.2,0v14.9c0,5.1-2.4,9.5-7.4,9.5c-2.4,0-3.8-1.4-3.8-4.6l0-15.1
	c0-3.3-1.4-4.7-4.7-4.7H37.8V44h2.4c1,0,1.6,0.6,1.6,1.6v11c0,9.5,5.3,12.6,12,12.6c4.5,0,8.6-2.2,10.5-5.8l0-0.1h0.4l0,0.1l0,0.1
	c0,0-0.1,0.5-0.1,0.8v0.5c0,2.2,1.6,3.7,4.7,3.7h10v-9.3h-2.4C75.9,59.1,75.3,58.5,75.3,57.5z M26.5,41.1
	c-5.3-2.5-10.7-3.6-10.8-6.7c0-2.3,2.6-3.3,5-3.3c2.2,0,4.7,1,4.8,2.9l0,1.9h10.3l0-5c0-3.5-2.2-6-5.1-7.7c-3-1.6-6.7-2.4-9.8-2.4v0
	l0,0c-3.3,0-6.4,0.7-8.9,2C7.1,25.2,4,29.4,4,34.8c0,6.3,4,10,8.5,12.6c5.9,3.4,12.8,4.8,12.9,7.9c0,2.7-2.5,3.6-4.9,3.6
	c-5.3,0-9.7-4.3-10.7-5.4l-6.6,7.9c1.2,1.4,7.4,7.7,17.2,7.7l0,0v0c10.6,0,16.7-6.7,16.7-14.4C37.1,47.1,31.8,43.5,26.5,41.1z
	 M147.9,30.5h1.4v0h5.6v-6.6c0-1.2-1.1-2.4-2.3-2.4H149v0l-3.4,0v6.6C145.6,29.4,146.7,30.5,147.9,30.5z M61.7,30.5h1.4v0h5.6v-6.6
	c0-1.2-1.1-2.4-2.3-2.4h-3.6v0l-3.4,0v6.6C59.5,29.4,60.5,30.5,61.7,30.5z M303.6,34.2L303.6,34.2L303.6,34.2
	C303.6,34.2,303.6,34.2,303.6,34.2c-5,0-9.3,3.8-10.7,8.3l0,0.1h-0.4l0-0.1l0-0.1c0-0.1,0.1-0.7,0.1-1.7V39c0-3-1.6-4.2-4.7-4.2h-10
	V44h2.4c1,0,1.6,0.6,1.6,1.6v22.8h11.2l0-12.7c0-1.9,0.2-3.4,0.6-4.7c1.7-5.1,6.2-6,8.9-6c0,0,0,0,0,0c1.1,0,1.9,0.1,2.2,0.2V34.3
	C304.6,34.2,304.1,34.2,303.6,34.2z M115.5,57.5V26.3c0-3.3-1.4-4.6-4.7-4.7l-11.5,0v9.3h3.5c1,0,1.6,0.6,1.6,1.6v2.2
	c0,0.9,0.1,1.5,0.1,1.5l0,0.1H104l0,0l0,0c0,0,0,0,0,0l0,0h0l0,0c0,0,0,0,0,0c0,0,0,0-0.1-0.1c-0.1-0.1-0.2-0.2-0.3-0.3
	c-0.3-0.2-0.7-0.5-1.4-0.8c-1.4-0.6-3.6-1.2-7-1.2c-9,0-15.4,6.9-15.4,17.6c0,10.5,6,17.6,15.2,17.6c7,0,9.7-4.5,9.7-4.5l0-0.1h0.3
	v0.7c0,1.5,1.1,3.1,4.3,3.1h10.1v-9.3l-2.4,0C116.1,59.1,115.5,58.5,115.5,57.5z M97.8,60L97.8,60L97.8,60c-4.1,0-6.8-3.4-6.8-8.5
	c0-5.3,3.2-8.2,6.8-8.2c4.6,0,6.8,4.1,6.8,8.2C104.6,57.5,101.3,60,97.8,60z M261.1,34c-10.9,0-17.6,7.7-17.6,17.6
	c0,9,6.5,17.6,18.6,17.6c4.5,0,8.1-1.3,10.6-2.7c2.1-1.2,3.5-2.3,3.8-2.6l-4.4-7.4c-0.7,0.6-4.6,3.5-9,3.5l0,0c-3.7,0-7.2-2-8.1-6.3
	l0-0.2h21.6c0.1-0.5,0.3-2.3,0.3-3.3c0,0,0,0,0,0h0C276.7,40.9,271.1,34,261.1,34z M265.3,46.9h-10l0-0.1l0-0.1
	c0.7-2.5,2.4-4.4,5.8-4.4c0,0,0,0,0,0c2.5,0,4.2,2.3,4.2,4.5V46.9z M198.7,57.6L198.7,57.6l0-11.1c0-9.5-5.3-12.6-12.1-12.6
	c-6,0-9.1,3.2-10.7,5.8l0,0.1h-0.4l0-0.1l0-0.1c0,0,0.1-0.5,0.1-0.8v-0.5c0-2.2-1.6-3.7-4.6-3.7h-10.1V44h2.4c1,0,1.6,0.6,1.6,1.6
	v13.5l-6.7,0c-1,0-1.6-0.6-1.6-1.6l0-18.1c0-3.3-1.4-4.7-4.7-4.7h-17v-0.4c0-3.1,3.3-3.6,5.6-3.6c1,0,1.7,0.1,2.1,0.1v-9.3
	c-0.4,0-1.6-0.2-3.3-0.2c-5.5,0-15.5,1.5-15.5,12.5v0.9h-4.2v8.6h4.2v25h11.2v-25h9.6c0.4,0,0.6,0.1,0.8,0.3
	c0.1,0.2,0.2,0.5,0.2,0.8c0,0.2,0,0.3,0,0.5l0,18.8c0,3.3,1.4,4.6,4.7,4.7h26V53.5c0-1.7,0.2-3.2,0.7-4.5c1-2.9,3.2-5,6.9-5h0
	c1.3,0,2.3,0.3,2.9,1.1c0.7,0.8,1,1.9,1,3.5l0,15.1c0,3.3,1.4,4.6,4.7,4.7h10.5v-9.3h-2.4C199.3,59.1,198.7,58.5,198.7,57.6z
	 M238.9,57.5V26.3c0-3.3-1.4-4.6-4.7-4.7h-11.5v9.3h3.5c1,0,1.6,0.6,1.6,1.6v2.2c0,0.9,0.1,1.5,0.1,1.5l0,0.1h-0.3l0,0l0,0
	c0,0,0,0,0,0l0,0h0l0,0l0,0c0,0,0,0,0,0c0,0,0,0-0.1-0.1c-0.1-0.1-0.2-0.2-0.3-0.3c-0.3-0.2-0.7-0.5-1.4-0.8c-1.4-0.6-3.6-1.2-7-1.2
	c-9,0-15.4,6.9-15.4,17.6c0,10.5,6,17.6,15.2,17.6c7,0,9.7-4.5,9.7-4.5l0-0.1h0.3v0.7c0,1.5,1.1,3.1,4.3,3.1l10.1,0v-9.3h-2.4
	C239.5,59.1,238.9,58.5,238.9,57.5z M221.2,60L221.2,60L221.2,60c-4.1,0-6.8-3.4-6.8-8.5c0-5.3,3.2-8.2,6.8-8.2
	c4.6,0,6.8,4.1,6.8,8.2C228,57.5,224.7,60,221.2,60z"/>
</svg>
