<?xml version="1.0" encoding="utf-8"?>
<!-- Generator: Adobe Illustrator 19.0.1, SVG Export Plug-In . SVG Version: 6.00 Build 0)  -->
<!DOCTYPE svg PUBLIC "-//W3C//DTD SVG 1.1//EN" "http://www.w3.org/Graphics/SVG/1.1/DTD/svg11.dtd">
<svg version="1.1" id="Ebene_1" xmlns="http://www.w3.org/2000/svg" xmlns:xlink="http://www.w3.org/1999/xlink" x="0px" y="0px"
	 viewBox="0 0 513 90" style="enable-background:new 0 0 513 90;" xml:space="preserve">
<style type="text/css">
	.st0{fill:#AFAFAF;}
</style>
<path id="XMLID_3009_" class="st0" d="M170.4,59.3l0-27.5l-10.3-5.2L145,35v27.3l7.5,5.6l7.4-7.6c0,0,0.5,2.8,2.9,5.2
	c1.6,1.5,3.3,2.4,3.3,2.4l6.4-6.6l-1.5-1.4L170.4,59.3z M160,57.9l-2.3,1.7c-1.1,0.1-3.4-1.3-3.8-2.4l0-23.9l6.1,3.6V57.9z
	 M199.8,30c-2.6-1.5-5.8-2.6-5.8-2.6l-6.8,5.2V8.4l-10,8.8v45.7l9.5,5.4l15.8-10.6V33.3C202.4,33.3,202.3,31.6,199.8,30z
	 M193.1,59.9l-5.9-2.9l0-21.1c0,0,2.8-0.5,3.9,0.4c1.6,1.2,2,2.9,2,2.9V59.9z M64.7,29.4c0,0-1.2,2.1-3.1,1c-1.2-0.7-3-3.2-3-3.2
	l-12.4,7.3l0,28l9.8,5.7l6.6-7l-7.3-4.3V35.4c0,0,4.6,2.1,7.9,0.3c0.8-0.4,2.9-2.2,2-5.3C65.1,29.8,64.7,29.4,64.7,29.4z
	 M123.9,33.3v-0.2c0,0,0.1-1.9-3.3-3.5c-3.3-1.6-4.1-1.7-4.1-1.7l-7.4,5.2c0,0,0-1.7-1.5-2.7c-1.4-0.9-4.4-2.6-4.4-2.6L96.4,34
	c0,0,1.8,0.9,2.9,2.4l0,23.9c0,0.3-0.1,0.6-0.2,0.7c-0.1,0.2-0.5,0.4-0.5,0.4l5.8,6.6l6.1-6.9l-0.4-0.5l-0.6-0.5V36l1.5-1.3l3.9,1.9
	v26.4l9.1,5l15.2-10.3v-26l-7.6-3.9L123.9,33.3z M123.9,57.4V36.3l2.3-1.5l3.2,2.6l0,23L123.9,57.4z M217.6,18.3l-4.4-6.4l-4.3,6.4
	l4.3,6.4L217.6,18.3z M168.1,18.3l-4.4-6.4l-4.3,6.4l4.3,6.4L168.1,18.3z M159.1,18.3l-4.4-6.4l-4.3,6.4l4.3,6.4L159.1,18.3z
	 M392.5,18.3l-4.4-6.4l-4.3,6.4l4.3,6.4L392.5,18.3z M92,31.8l-9.6-4.4l-6.1,5.6V8.4L67,16v40.5h0v6.9l6,4.7l6.2-6.2l-2.8-2.6v-5.5
	h0V35.2l6.2,3.2l0.1,0.2l0,14.7h0v9.5c0,0.2,0.3,1.4,1.2,2.4c1.4,1.7,4.5,3.1,4.5,3.1l6.9-6.4l-3.1-3L92,31.8z M394,60.4
	c-0.8-1-0.9-1.6-0.9-1.6V32.9c0,0,0-1.2-1.3-2.1c-0.8-0.6-4.1-3.2-4.1-3.2l-7.1,5.6l2.8,3.2l0,26.2l5.5,5.5l6.6-6.3
	C395.5,61.9,394.5,61.1,394,60.4z M350.8,9.5c-2-1.2-3.8-1.3-3.8-1.3s-12.6,0.2-16.9,0.1c-5.2-0.2-7.5-1.9-8.7-3.2
	c0.4,1.3,2.9,9,6.1,12.1c1.5,1.4,2.5,1.9,4,1.9h5.1v16.2h-3.5V37h3.5v19.2c-1.2-0.3-2.6-0.4-4.1-0.2c-4.5,0.6-8.1,1.9-10.3,5.4
	c0,0.1,0,0.1,0,0.1c-2,3.2-3,7.9-2,11.6c1.9,7.1,8.2,10.6,13.8,11c5.8,0.5,10.5-1.3,14.7-4.5c5.4-4.1,5.1-8.8,5.1-8.8c0,0,0,0,0,0
	c0,0,0-0.1,0-0.1c0,0.1-0.1,0.2-0.1,0.3c-1.7,3-5,5.7-9.4,7.1c-1.9,0.6-4,1-6.2,1.1c-6.3,0.3-12.7-1.7-15.4-5.4
	c-0.1-0.1-0.1-0.1-0.2-0.2c-0.1-0.1-0.2-0.3-0.3-0.4c-0.1-0.2-0.2-0.4-0.3-0.7c0-0.1-0.1-0.2-0.1-0.3c0,0,0-0.1-0.1-0.1
	c-0.5-1.3-0.5-2.8,0-4.4c3.2-8.7,13.6-0.6,15.4,2.3c0.6-0.3,18.2-10.7,18.2-10.7V35.3l-9.3,0c0,0,2.7-1.9,5.7-4.5
	c3.1-2.6,4.1-5,4.7-8.2c0.5-3.2,0.1-5.2-0.6-7.7C354.9,12.4,352.8,10.7,350.8,9.5z M344,60.9c0,0-2.1-2.8-5.8-4.1V37h5.8V60.9z
	 M344,30.7c0,1.3-0.1,2.2-0.9,3.1c-1.2,1.3-2.1,1.5-4.9,1.5V19.1h3.1c1.4,0,2.7,1.2,2.7,2.8C344,22.8,344,30.7,344,30.7z
	 M219.1,60.4c-0.8-1-0.9-1.6-0.9-1.6V32.9c0,0,0-1.2-1.3-2.1c-0.8-0.6-4.1-3.2-4.1-3.2l-7.1,5.6l2.8,3.2l0,26.2l5.5,5.5l6.6-6.3
	C220.6,61.9,219.6,61.1,219.1,60.4z M409.5,8.7l-9.5,8.6v11.5h-3.3v2.8h3.4v31.2l5.2,5.4l6.7-6.4l-2.7-2.8V31.4h3.4v-2.7h-3.3V8.7z
	 M442.7,35.9l1.2-2.2l-6.3-5.7l-6.1,6.4l1.2,1.6l0,23l-3.2,2.2l-3.5-2.7l0-25.5l-6-5l-6.7,6.7l3.1,2.6v26.5l7.8,4.6l7.9-6.4
	c0,0,0.1,1.3,0.6,1.8c0.5,0.5,6.3,4.8,6.3,4.8l6.7-6.3l-3-2.3V35.9z M508.5,61.6c-1-1.8-2.1-3.3-2.1-3.3V32.8L495.9,28l-15.4,9.1
	l0,25.7l9.7,5.2l5.9-5.4l3.4,3.9c0,0,1.8,2.1,2.1,3.2c0.4,1,0,2-0.3,2.7c-0.6,1-1.7,1-1.7,1s-3-2.8-6.1-3.4c-3-0.6-3.1-0.6-5.5,0
	c-2.4,0.5-4.2,2.9-5,4c-0.8,1.1-2.2,3.7-2.2,3.7s1.8-1.8,3.4-2.2c2.7-0.7,3.9-0.1,5.2,0.6c1.9,1.1,4,4,4,4l10.7-7.7
	c0,0,2.7-2.2,4.1-4.1C509.5,66.3,509.2,62.8,508.5,61.6z M490,57.1V35.4l6.1,2.5l0,22.9L490,57.1z M474.9,34.8c0-0.3,0-0.8-0.3-1.4
	c-0.2-0.6-0.6-0.9-1-1.2c0,0-5.7-3.7-5.7-3.7l-8.9,7.4c0,0,0.1-0.7,0-1.9c-0.1-0.8-0.6-1.4-1.1-1.9l-4.5-4l-6.6,6.4l2.3,2.1v27
	l6,4.7l6.5-6.2l-2.8-2.6l0-20.4l3.6-3.4l3.2,2.1v25.1c0,0.2,0.3,1.4,1.2,2.4c1.4,1.7,4.5,3.1,4.5,3.1l6.8-6.4l-3.1-2.9V34.8z
	 M381.6,38l-6.8-11.1l-14.9,7.4v28.1l9.9,5.7l6.7-7.1l-7.4-4.4v-8.9L381.6,38z M369.2,35.7l4.1,6.7l-4.1,3.2V35.7z M285.5,31.8
	l-9.6-4.4l-6.1,5.6V8.4l-9.5,7.5v40.5h0v6.9l6,4.7l6.2-6.2l-2.8-2.6V35.2l6.2,3.2l0.1,0.2l0,14.7h0v9.5c0,0.2,0.3,1.4,1.2,2.4
	c1.4,1.7,4.5,3.1,4.5,3.1l6.9-6.4l-3.1-3L285.5,31.8z M258.5,29.4c0,0-1.2,2.1-3.1,1c-1.2-0.7-3-3.2-3-3.2l-12.4,7.3l0,28l9.8,5.7
	l6.6-7l-7.3-4.3V35.4c0,0,4.6,2.1,7.9,0.3c0.8-0.4,2.9-2.2,2-5.3C258.8,29.8,258.5,29.4,258.5,29.4z M246.8,12.8
	c0.7-1,1.6-3.2,1.6-3.2s-2.2,2.9-6,2c-0.6-0.1-3-1.9-3-1.9l-15.2,8.1v57.9l1.4-1.1v-0.1l8.8-6.5V15.5c0,0,3.1,1.8,4,2.1
	c0.9,0.3,3.4,0.2,5.3-1.3C244.6,15.6,246.1,13.9,246.8,12.8z M313.1,38l-6.8-11.1l-14.9,7.4v28.1l9.9,5.7L308,61l-7.4-4.4v-8.9
	L313.1,38z M300.7,35.7l4.1,6.7l-4.1,3.2V35.7z M289.3,30.9L289.3,30.9L289.3,30.9L289.3,30.9L289.3,30.9z M289.3,30.9L289.3,30.9
	L289.3,30.9L289.3,30.9L289.3,30.9z M27.2,16.2c2.3,0.8,6.3,0.4,9.8-2.9c4.8-4.6,5.7-9.9,5.7-9.9s-3,4.9-7.2,4.9
	c-4.2,0-7.2-3.8-7.2-3.8L11.6,16v20.5l7.6,5.5l6-6.4l0,20.2v0c-0.9-0.4-2-0.7-3.2-0.9c-5.9-0.7-11.9,0.4-14.9,6.5
	C5.9,63.8,4.3,68,5.5,73c1.8,7.1,8.2,10.6,13.8,11c5.8,0.5,10.5-1.3,14.7-4.5c5.4-4.1,5.1-8.8,5.1-8.8c-2.3,4.4-8,8.1-15.7,8.5
	c-7,0.4-14.2-2.2-16.2-6.7c-0.4-0.9-0.6-1.8-0.6-2.8c0-3.7,3-6.7,6.7-6.7c0.7,0,1.4,0.1,2.1,0.3c0.7,0.2,1.5,0.5,2.3,1
	c3.8,2.5,5.6,5.8,5.6,5.8l18.2-12.9l0-24.4l-8.7-5.4l-5.8,4.8V16.1C27,16.1,27.1,16.1,27.2,16.2z M25.2,33.3l-3.4-2.7V13
	c0,0,1.3,1.2,3.3,2.2l0.1,0.1L25.2,33.3z M30.7,38.3v23c0,0-1.3-2.5-3.8-4.3l0-21.2L30.7,38.3z"/>
</svg>
